HIERARCHY
ROOT Hips
{
	OFFSET -0.001795 -0.223333 0.028219
	CHANNELS 6 Xposition Yposition Zposition Zrotation Yrotation Xrotation 
	JOINT LeftUpLeg
	{
		OFFSET 0.069520 -0.091406 -0.006815
		CHANNELS 3 Zrotation Yrotation Xrotation
		JOINT LeftLeg
		{
			OFFSET 0.034277 -0.375199 -0.004496
			CHANNELS 3 Zrotation Yrotation Xrotation
			JOINT LeftFoot
			{
				OFFSET -0.013596 -0.397961 -0.043693
				CHANNELS 3 Zrotation Yrotation Xrotation
				JOINT LeftToe
				{
					OFFSET 0.026358 -0.055791 0.119288
					CHANNELS 3 Zrotation Yrotation Xrotation
					End Site
					{
						OFFSET 0.000000 0.000000 0.000000
					}
				}
			}
		}
	}
	JOINT RightUpLeg
	{
		OFFSET -0.067670 -0.090522 -0.004320
		CHANNELS 3 Zrotation Yrotation Xrotation
		JOINT RightLeg
		{
			OFFSET -0.038290 -0.382569 -0.008850
			CHANNELS 3 Zrotation Yrotation Xrotation
			JOINT RightFoot
			{
				OFFSET 0.015774 -0.398415 -0.042312
				CHANNELS 3 Zrotation Yrotation Xrotation
				JOINT RightToe
				{
					OFFSET -0.025372 -0.048144 0.123348
					CHANNELS 3 Zrotation Yrotation Xrotation
					End Site
					{
						OFFSET 0.000000 0.000000 0.000000
					}
				}
			}
		}
	}
	JOINT Spine
	{
		OFFSET -0.002533 0.108963 -0.026696
		CHANNELS 3 Zrotation Yrotation Xrotation
		JOINT Spine1
		{
			OFFSET 0.005487 0.135180 0.001092
			CHANNELS 3 Zrotation Yrotation Xrotation
			JOINT Spine2
			{
				OFFSET 0.001457 0.052922 0.025425
				CHANNELS 3 Zrotation Yrotation Xrotation
				JOINT Neck
				{
					OFFSET -0.002778 0.213870 -0.042857
					CHANNELS 3 Zrotation Yrotation Xrotation
					JOINT Head
					{
						OFFSET 0.005152 0.064970 0.051349
						CHANNELS 3 Zrotation Yrotation Xrotation
						End Site
						{
							OFFSET 0.000000 0.000000 0.000000
						}
					}
				}
				JOINT LeftShoulder
				{
					OFFSET 0.078845 0.121749 -0.034090
					CHANNELS 3 Zrotation Yrotation Xrotation
					JOINT LeftArm
					{
						OFFSET 0.090977 0.030469 -0.008868
						CHANNELS 3 Zrotation Yrotation Xrotation
						JOINT LeftForeArm
						{
							OFFSET 0.259612 -0.012772 -0.027456
							CHANNELS 3 Zrotation Yrotation Xrotation
							JOINT LeftHand
							{
								OFFSET 0.249234 0.008986 -0.001171
								CHANNELS 3 Zrotation Yrotation Xrotation
								End Site
								{
									OFFSET 0.000000 0.000000 0.000000
								}
							}
						}
					}
				}
				JOINT RightShoulder
				{
					OFFSET -0.081759 0.118833 -0.038615
					CHANNELS 3 Zrotation Yrotation Xrotation
					JOINT RightArm
					{
						OFFSET -0.096012 0.032551 -0.009143
						CHANNELS 3 Zrotation Yrotation Xrotation
						JOINT RightForeArm
						{
							OFFSET -0.253742 -0.013329 -0.021401
							CHANNELS 3 Zrotation Yrotation Xrotation
							JOINT RightHand
							{
								OFFSET -0.255298 0.007772 -0.005559
								CHANNELS 3 Zrotation Yrotation Xrotation
								End Site
								{
									OFFSET 0.000000 0.000000 0.000000
								}
							}
						}
					}
				}
			}
		}
	}
}
MOTION
Frames: 16
Frame Time: 0.050000
0.000000 0.949383 0.000000 -2.367178 -2.248397 1.340763 3.837362 -0.744059 -12.706757 -3.969469 1.173237 51.900107 1.343524 5.830470 8.886328 0.000000 0.000000 0.000000 7.174714 1.797963 -12.066238 1.670674 0.287975 15.346637 -2.331041 -7.428721 4.153746 0.000000 0.000000 0.000000 -0.236544 -0.419450 11.119165 4.897370 -0.434220 -26.497633 0.446957 0.220130 29.565380 0.068935 1.602312 -31.355832 0.000000 0.000000 0.000000 -28.705916 4.859422 -4.545008 -50.960493 -8.975602 -5.088298 -11.725719 -30.585856 5.118202 0.000000 0.000000 0.000000 19.878551 -0.686079 -1.754023 55.608978 6.732878 -5.084275 3.793308 24.122815 1.832456 0.000000 0.000000 0.000000 
-0.004047 0.952447 0.044230 -2.561103 -3.617211 2.466060 3.851730 -1.013256 -18.786271 -3.662437 1.277796 48.301918 3.747959 9.244791 5.809429 0.000000 0.000000 0.000000 7.994577 1.190659 -8.407597 0.879711 0.382874 12.241451 -1.346416 -5.175089 3.892908 0.000000 0.000000 0.000000 -1.561719 -0.226088 9.861549 6.750967 -0.720643 -27.676320 1.128479 1.512849 30.970997 -0.099721 1.819407 -32.502538 0.000000 0.000000 0.000000 -29.064476 7.062894 -6.246931 -51.769729 -7.308962 -5.848138 -13.406087 -30.402332 5.587669 0.000000 0.000000 0.000000 16.610709 -0.155492 -1.051214 58.162444 8.429126 -4.535743 3.888825 26.652378 2.146800 0.000000 0.000000 0.000000 
-0.007246 0.951866 0.088223 -1.701433 -5.669126 1.759595 4.007705 -1.074586 -23.441307 -5.282833 2.462004 43.881796 4.268065 9.644018 3.542412 0.000000 0.000000 0.000000 7.132018 0.445690 -4.214631 0.314002 0.504235 11.584317 -1.057732 -3.552226 1.699337 0.000000 0.000000 0.000000 -1.531433 -0.230827 10.927833 5.296159 -0.396444 -28.180129 2.068409 5.012860 31.045153 -0.922452 2.637466 -32.450335 0.000000 0.000000 0.000000 -29.228241 7.088152 -7.162719 -50.193221 -6.226379 -5.906061 -15.283097 -30.509159 5.926431 0.000000 0.000000 0.000000 16.658252 -0.022135 -0.474287 58.650526 10.398267 -3.628309 2.833952 27.120873 2.107441 0.000000 0.000000 0.000000 
-0.009706 0.948488 0.132313 -1.654409 -7.112367 1.501464 4.190111 -1.009804 -25.979954 -5.678374 2.197213 33.475389 4.784768 10.664718 4.465539 0.000000 0.000000 0.000000 6.515474 -0.229476 0.029408 0.492301 0.423159 10.299138 -0.824624 -2.880179 1.464856 0.000000 0.000000 0.000000 -2.091216 -0.161037 11.738082 6.070199 -0.443645 -29.333946 2.315366 7.352617 32.264158 -1.100852 3.046565 -34.561758 0.000000 0.000000 0.000000 -29.603515 8.378381 -8.676274 -49.799163 -5.623931 -6.029407 -16.642341 -30.497407 6.213889 0.000000 0.000000 0.000000 16.641961 -0.147152 -0.190595 57.890162 12.906518 -2.542345 3.100102 29.468120 2.530067 0.000000 0.000000 0.000000 
-0.011865 0.941242 0.177806 -1.625841 -8.842107 1.295339 4.420310 -0.847471 -27.541780 -5.923495 1.650794 21.070429 4.873815 11.219502 8.952549 0.000000 0.000000 0.000000 5.886553 -0.786272 4.046027 -0.384502 0.551015 9.501542 -0.260195 -0.287890 -0.549927 0.000000 0.000000 0.000000 -2.313377 -0.114155 12.468664 5.743135 -0.446685 -28.717094 3.289065 9.724882 31.943957 -1.386820 3.440604 -35.587053 0.000000 0.000000 0.000000 -30.311174 8.202522 -9.294210 -49.416276 -5.154897 -5.954705 -15.621346 -29.707465 5.634964 0.000000 0.000000 0.000000 16.780235 0.663410 0.500404 57.107197 15.242284 -1.372460 1.243902 31.526015 2.346053 0.000000 0.000000 0.000000 
-0.013635 0.931742 0.225959 -2.236865 -10.496495 1.298076 5.401695 -0.448045 -28.392915 -5.009167 0.921281 9.897197 4.989376 11.459749 11.624685 0.000000 0.000000 0.000000 5.912090 -1.253725 7.592720 -0.474950 0.563582 9.244294 0.553220 2.579647 -1.634524 0.000000 0.000000 0.000000 -1.993506 -0.135880 12.343565 5.968593 -0.516008 -28.527081 3.807136 11.475802 31.842249 -1.733084 3.734838 -35.522452 0.000000 0.000000 0.000000 -30.215701 9.338817 -10.370860 -50.240494 -3.552980 -6.555144 -15.757214 -29.394919 5.559583 0.000000 0.000000 0.000000 16.405915 0.882579 0.738998 56.872650 17.635838 -0.133461 -0.204150 32.314152 2.069905 0.000000 0.000000 0.000000 
-0.014960 0.921530 0.278796 -2.359262 -11.955358 0.882716 5.042953 -0.419463 -27.811325 -3.549801 0.494362 2.546027 4.844035 11.220710 13.975356 0.000000 0.000000 0.000000 4.725231 -1.525208 11.363304 -0.445055 0.600390 9.712992 0.933068 4.425068 -2.677481 0.000000 0.000000 0.000000 -2.515963 -0.047655 12.861627 6.285642 -0.513680 -29.065135 4.308700 13.092040 32.660703 -0.464558 3.274321 -36.190047 0.000000 0.000000 0.000000 -29.187601 9.148350 -10.195181 -51.036927 -2.617785 -7.088133 -13.478445 -28.476381 4.759337 0.000000 0.000000 0.000000 17.225592 0.427591 0.676491 56.190480 18.860172 0.281955 -0.593682 33.603109 2.152332 0.000000 0.000000 0.000000 
-0.015630 0.914144 0.337161 -1.904037 -13.049261 0.242544 4.343260 -0.507149 -28.395874 -3.514411 0.536578 5.294734 4.898652 11.231625 14.818810 0.000000 0.000000 0.000000 3.022875 -1.569595 15.222802 -0.614318 0.769194 11.498151 2.447869 6.992076 -1.112455 0.000000 0.000000 0.000000 -3.709046 0.112497 12.241036 5.983670 -0.564076 -28.134296 5.309482 13.016825 32.918438 -0.503999 3.145605 -34.865478 0.000000 0.000000 0.000000 -29.399155 9.229436 -10.011345 -50.907542 -2.649197 -7.128605 -10.840654 -26.241176 3.797075 0.000000 0.000000 0.000000 17.385161 1.076202 0.864298 55.890004 19.658089 0.630490 -1.145899 33.332172 1.910381 0.000000 0.000000 0.000000 
-0.014946 0.913046 0.400049 -1.429099 -12.945673 -0.107821 3.057308 -0.868291 -28.446748 -3.895622 0.793715 11.733913 4.947123 11.565586 17.558970 0.000000 0.000000 0.000000 1.139589 -1.322888 16.688438 -0.823295 1.180643 15.925360 3.892759 8.973580 0.752910 0.000000 0.000000 0.000000 -4.507327 0.165914 10.440229 6.147769 -0.764064 -26.643647 4.692578 12.490920 33.080198 -0.988797 3.292750 -34.403507 0.000000 0.000000 0.000000 -29.549233 8.883305 -9.572659 -50.870552 -3.015071 -7.090341 -7.158414 -24.363429 2.756764 0.000000 0.000000 0.000000 19.048976 1.790454 1.184898 54.911563 19.404543 0.266270 -1.917079 32.867639 1.631229 0.000000 0.000000 0.000000 
-0.012207 0.919224 0.463004 -0.593518 -12.402232 -0.367669 1.119009 -1.431927 -27.935398 -4.459622 1.184738 17.257230 4.824086 11.344104 15.555534 0.000000 0.000000 0.000000 -1.168010 -0.809305 14.390810 0.094096 1.760434 24.525947 6.479695 8.591299 8.417623 0.000000 0.000000 0.000000 -5.832234 0.300028 10.031486 6.503568 -0.839710 -26.519981 4.788930 11.851697 33.251346 -1.393239 3.442333 -35.017587 0.000000 0.000000 0.000000 -30.323454 8.911953 -9.671863 -49.786122 -3.768810 -6.671656 -7.190381 -21.628206 2.437106 0.000000 0.000000 0.000000 18.077849 1.695797 1.056608 55.896721 18.084601 -0.241111 -1.150066 31.819048 1.749635 0.000000 0.000000 0.000000 
-0.008460 0.929391 0.521088 0.303257 -11.242170 -0.330442 -0.951422 -1.958418 -25.767643 -5.067777 1.428688 19.115404 5.125464 11.813118 13.623530 0.000000 0.000000 0.000000 -2.742898 -0.320456 7.941263 1.593302 2.601797 37.832323 7.415291 5.130336 16.661890 0.000000 0.000000 0.000000 -6.344279 0.368857 10.550161 6.816584 -0.833844 -27.039970 4.044132 10.884347 32.396166 -0.833502 3.117055 -35.304919 0.000000 0.000000 0.000000 -29.185569 8.449942 -8.974721 -49.456337 -4.635725 -6.280824 -7.184703 -21.028837 2.348942 0.000000 0.000000 0.000000 17.902639 0.453514 0.289733 57.097737 16.049132 -1.030519 -0.212008 30.971084 1.910113 0.000000 0.000000 0.000000 
-0.004837 0.938670 0.572952 0.706498 -9.779074 -0.268002 -2.876573 -2.203665 -21.964675 -4.317316 1.070691 18.055921 4.331677 10.464201 11.017402 0.000000 0.000000 0.000000 -3.273657 0.138985 0.068274 3.838367 2.601539 50.191047 4.824000 -0.744239 20.359003 0.000000 0.000000 0.000000 -5.643336 0.277037 10.802468 6.266600 -0.775125 -26.565046 3.022570 8.205538 31.691358 -0.798335 2.783035 -34.947548 0.000000 0.000000 0.000000 -29.304716 8.018744 -7.994317 -48.517793 -6.101354 -5.788262 -8.684470 -22.049362 2.824318 0.000000 0.000000 0.000000 18.703415 0.334564 -0.236434 57.067652 14.631085 -1.675231 -0.408512 29.637761 1.625591 0.000000 0.000000 0.000000 
-0.001814 0.947180 0.621425 0.502606 -8.764396 -1.259780 -3.949514 -1.904072 -16.257414 -3.418362 0.666704 15.094566 3.423494 8.946304 10.143514 0.000000 0.000000 0.000000 -3.105010 0.550417 -6.044085 5.381866 2.072265 57.583854 1.414683 -4.912298 17.181650 0.000000 0.000000 0.000000 -4.764263 0.174800 12.216064 6.914119 -0.893917 -26.800697 1.726605 6.673512 31.813178 -0.164008 2.313051 -34.881227 0.000000 0.000000 0.000000 -29.166703 7.308027 -7.069882 -47.703521 -7.821220 -5.225440 -9.610547 -24.137932 3.353651 0.000000 0.000000 0.000000 19.221143 -0.595559 -1.001305 56.658062 13.622649 -2.202969 -0.230654 28.834190 1.556323 0.000000 0.000000 0.000000 
0.000913 0.954823 0.667967 0.029539 -6.339851 -1.573240 -4.651701 -1.403802 -10.883280 -2.191975 0.230235 12.465129 2.578351 7.343428 8.037248 0.000000 0.000000 0.000000 -2.206896 1.002059 -11.159953 6.202353 0.732941 59.005888 -1.155441 -8.206748 14.059502 0.000000 0.000000 0.000000 -3.466836 -0.024425 12.123556 6.839738 -0.877456 -26.750785 1.114582 4.011516 32.261169 -0.801308 2.372338 -33.675119 0.000000 0.000000 0.000000 -28.921238 7.089659 -6.385644 -47.563420 -10.313641 -4.480616 -10.492191 -26.440938 3.993303 0.000000 0.000000 0.000000 19.878969 -1.389025 -1.772390 56.117505 11.984378 -3.013652 -1.062325 28.592960 1.287874 0.000000 0.000000 0.000000 
0.003307 0.959289 0.712441 -0.956122 -3.874035 -1.981902 -4.671655 -0.781448 -5.990050 -1.173345 -0.038823 9.709346 1.483106 5.201887 6.522933 0.000000 0.000000 0.000000 -1.663795 1.470964 -15.904957 6.879028 -0.730150 57.065643 -2.130675 -9.201409 11.657321 0.000000 0.000000 0.000000 -2.028200 -0.235098 12.511911 7.097959 -0.912729 -26.888336 0.508105 1.666501 32.546708 -1.181026 2.393453 -33.066249 0.000000 0.000000 0.000000 -28.078549 7.192812 -5.984666 -48.575847 -12.002096 -4.023232 -11.086368 -29.053651 4.686511 0.000000 0.000000 0.000000 19.894131 -2.538591 -2.608423 55.709522 9.964355 -3.953403 -1.145372 28.605066 1.227811 0.000000 0.000000 0.000000 
0.005082 0.960716 0.755210 -1.696997 -1.895527 -1.916661 -4.520754 -0.172244 -1.488827 -0.442200 -0.155663 7.278677 0.658668 3.239809 4.787907 0.000000 0.000000 0.000000 -1.071118 1.900144 -19.892659 5.820635 -0.768545 50.538072 -2.766377 -10.058297 10.669917 0.000000 0.000000 0.000000 -1.113793 -0.362729 12.252116 7.673007 -1.034363 -26.841607 -0.096558 0.580834 32.512935 -0.670477 2.138775 -32.971535 0.000000 0.000000 0.000000 -27.413115 6.904489 -5.749491 -49.130456 -13.176972 -3.570237 -11.162982 -30.377601 4.947052 0.000000 0.000000 0.000000 20.498997 -3.311821 -3.067342 55.389926 8.137684 -4.770547 -1.778002 28.325118 1.082451 0.000000 0.000000 0.000000 
